# xmcd CD database file
# Copyright (C) 1996 Ti Kan
#
# Track frame offsets:
#	150
#	15605
#	33084
#	54025
#	66408
#	82993
#	99870
#	118111
#	135174
#	154367
#	175096
#	195855
# Disc length: 3142 seconds
#
# Revision: 1
# Processed by: cddbd v1.5.2PL0 Copyright (c) Steve Scherf et al.
# Submitted via: CDCOPY 4.900
#
DISCID=840c440c
DTITLE=Barenaked Ladies - Maroon
DYEAR=1900
DGENRE=
TTITLE0=Too Little Too Late
TTITLE1=Never Do Anything
TTITLE2=Pinch Me
TTITLE3=Go Home
TTITLE4=Falling For The First Time
TTITLE5=Conventioneers
TTITLE6=Sell Sell Sell
TTITLE7=The Humour Of The Situation
TTITLE8=Baby Seat
TTITLE9=Off The Hook
TTITLE10=Helicopters
TTITLE11=Tonight Is The Night I Fell Asleep At The Wheel
EXTD=
EXTT0=
EXTT1=
EXTT2=
EXTT3=
EXTT4=
EXTT5=
EXTT6=
EXTT7=
EXTT8=
EXTT9=
EXTT10=
EXTT11=
PLAYORDER=
